<svg xmlns="http://www.w3.org/2000/svg" viewBox="0 0 256 161" >
  <style>
    @keyframes rotate{from{transform:rotate(0)}50%{transform:rotate(180deg)}to{transform:rotate(360deg)}}
    @keyframes bounce{from{fill:#f88}50%{fill:#f55}to{fill:#f88}}
  </style>
  <path class="cloud" d="m211 71.7-1.2.1.3-5.7a59.2 59.2 0 0 0-117.8-8.4c-4-1.4-8-2.1-12.4-2.1a41 41 0 0 0-40.7 41.1v.5a29 29 0 0 0-34.5 28.6c0 16 12.9 28.2 28.9 28.2H211a41 41 0 0 0 40.8-41.2 41 41 0 0 0-40.8-41Z"/>
  <g class="arrows" style="transform-origin:55.7% 58.67%; animation:rotate 2s cubic-bezier(.46,.03,.54,.97) infinite">
    <path d="M141.2 140a45.1 45.1 0 0 1-44.4-43.5L90 96c-2.8-.2-2.9-2.2-.3-3.8l14-10.2c3-2.5 3.6-2 5.7.3L120 94c2.4 2.4.1 3.7-2 3.6l-6.7-.4a30 30 0 0 0 29.8 28.8c3.2 0 6.3-1 9.3-1.6 5.1-1 9.3 11.9 3.8 13.5-2.6.8-7.6 2.2-13 2.2Zm.4-90A45.1 45.1 0 0 1 186 93.4l6.6.5c2.9.2 3 2.2.4 3.8L179 108c-3 2.5-3.5 2.1-5.6-.3L162.8 96c-2.4-2.4-.1-3.7 1.9-3.6l6.7.4a30 30 0 0 0-29.7-28.7c-3.3 0-6.3.9-9.3 1.5-5.1 1-9.4-11.9-3.9-13.5 2.7-.7 7.7-2.2 13-2.2Z" fill="currentColor"/>
  </g>
  <g class="error" display="none">
    <circle cx="143.5" cy="93.7" r="50" fill="#fff"/>
    <path d="M143.9 116a6 6 0 0 0-6 6v1.3a6 6 0 0 0 6 6 6 6 0 0 0 6-6V122a6 6 0 0 0-6-6.2Zm-.1-57.6c-5 0-9.4 4.8-9 9.8l3 37a6 6 0 0 0 5.5 5.7c3.4.2 6.4-2.4 6.6-5.7l3.1-37c.4-5-3.9-9.8-9.2-9.8Z" fill="currentColor"/>
  </g>
</svg>
